<?xml version="1.0" encoding="utf-8"?>
<!-- Generator: Adobe Illustrator 24.3.0, SVG Export Plug-In . SVG Version: 6.00 Build 0)  -->
<svg version="1.1" id="oceanside_1_" xmlns="http://www.w3.org/2000/svg" xmlns:xlink="http://www.w3.org/1999/xlink" x="0px"
	 y="0px" viewBox="0 0 130 15" style="enable-background:new 0 0 130 15;" xml:space="preserve">
<style type="text/css">
	.st0{fill:#333333;}
</style>
<g>
	<path class="st0" d="M8.5,14.7V0.3h5.4c1.9,0,3.4,0.3,4.4,1c1,0.7,1.5,1.7,1.5,3c0,0.7-0.2,1.4-0.5,1.9c-0.4,0.5-0.9,0.9-1.6,1.2
		c0.8,0.2,1.4,0.6,1.8,1.1c0.4,0.5,0.6,1.2,0.6,2c0,1.4-0.5,2.5-1.4,3.2c-0.9,0.7-2.3,1.1-4.1,1.1H8.5z M12.1,6.3H14
		c0.8,0,1.3-0.1,1.7-0.4c0.3-0.3,0.5-0.7,0.5-1.2c0-0.6-0.2-1.1-0.5-1.3C15.3,3.1,14.7,3,13.9,3h-1.8V6.3z M12.1,8.6v3.5h2.4
		c0.7,0,1.2-0.1,1.5-0.4c0.3-0.3,0.5-0.7,0.5-1.2c0-1.2-0.6-1.8-1.9-1.8H12.1z"/>
	<path class="st0" d="M32.7,12h-4.9l-0.9,2.7H23l5.5-14.5h3.4l5.5,14.5h-3.9L32.7,12z M28.6,9.3h3.2l-1.6-5L28.6,9.3z"/>
	<path class="st0" d="M46.2,9.6h-2v5.1h-3.6V0.3h5.9c1.8,0,3.2,0.4,4.2,1.1s1.5,1.8,1.5,3.2c0,1-0.2,1.8-0.6,2.5
		c-0.4,0.7-1.1,1.2-2,1.6l3.1,5.8v0.1h-3.9L46.2,9.6z M44.2,6.9h2.3c0.7,0,1.2-0.2,1.5-0.5s0.5-0.8,0.5-1.5c0-0.6-0.2-1.1-0.5-1.5
		C47.7,3.1,47.2,3,46.5,3h-2.3V6.9z"/>
	<path class="st0" d="M61.2,0.3l3.3,10.1l3.3-10.1h4.7v14.5H69v-3.4l0.3-6.9l-3.6,10.3h-2.4L59.7,4.4l0.3,6.9v3.4h-3.6V0.3H61.2z"/>
	<path class="st0" d="M85.7,12h-4.9l-0.9,2.7H76l5.5-14.5h3.4l5.5,14.5h-3.9L85.7,12z M81.6,9.3h3.2l-1.6-5L81.6,9.3z"/>
	<path class="st0" d="M97.2,12.1h6.3v2.7h-9.9V0.3h3.6V12.1z"/>
	<path class="st0" d="M115.8,12h-4.9l-0.9,2.7h-3.9l5.5-14.5h3.4l5.5,14.5h-3.9L115.8,12z M111.7,9.3h3.2l-1.6-5L111.7,9.3z"/>
</g>
</svg>
