<?xml version="1.0" encoding="utf-8"?>
<!-- Generator: Adobe Illustrator 24.3.0, SVG Export Plug-In . SVG Version: 6.00 Build 0)  -->
<svg version="1.1" id="oceanside_1_" xmlns="http://www.w3.org/2000/svg" xmlns:xlink="http://www.w3.org/1999/xlink" x="0px"
	 y="0px" viewBox="0 0 130 15" style="enable-background:new 0 0 130 15;" xml:space="preserve">
<style type="text/css">
	.st0{fill:#FFFFFF;}
</style>
<g>
	<path class="st0" d="M9,14.7V0.3h5.4c1.9,0,3.4,0.3,4.4,1c1,0.7,1.5,1.7,1.5,3c0,0.7-0.2,1.4-0.5,1.9c-0.4,0.5-0.9,0.9-1.6,1.2
		c0.8,0.2,1.4,0.6,1.8,1.1c0.4,0.5,0.6,1.2,0.6,2c0,1.4-0.5,2.5-1.4,3.2c-0.9,0.7-2.3,1.1-4.1,1.1H9z M12.6,6.3h1.9
		c0.8,0,1.3-0.1,1.7-0.4c0.3-0.3,0.5-0.7,0.5-1.2c0-0.6-0.2-1.1-0.5-1.3c-0.4-0.3-0.9-0.4-1.8-0.4h-1.8V6.3z M12.6,8.6v3.5H15
		c0.7,0,1.2-0.1,1.5-0.4c0.3-0.3,0.5-0.7,0.5-1.2c0-1.2-0.6-1.8-1.9-1.8H12.6z"/>
	<path class="st0" d="M33.2,12h-4.9l-0.9,2.7h-3.9L29,0.3h3.4l5.5,14.5H34L33.2,12z M29.1,9.3h3.2l-1.6-5L29.1,9.3z"/>
	<path class="st0" d="M46.6,9.6h-2v5.1h-3.6V0.3H47c1.8,0,3.2,0.4,4.2,1.1s1.5,1.8,1.5,3.2c0,1-0.2,1.8-0.6,2.5
		c-0.4,0.7-1.1,1.2-2,1.6l3.1,5.8v0.1h-3.9L46.6,9.6z M44.7,6.9H47c0.7,0,1.2-0.2,1.5-0.5S49,5.6,49,5c0-0.6-0.2-1.1-0.5-1.5
		c-0.3-0.4-0.9-0.5-1.5-0.5h-2.3V6.9z"/>
	<path class="st0" d="M61.7,0.3L65,10.3l3.3-10.1h4.7v14.5h-3.6v-3.4l0.3-6.9l-3.6,10.3h-2.4L60.2,4.4l0.3,6.9v3.4h-3.6V0.3H61.7z"
		/>
	<path class="st0" d="M86.1,12h-4.9l-0.9,2.7h-3.9L82,0.3h3.4l5.5,14.5H87L86.1,12z M82.1,9.3h3.2l-1.6-5L82.1,9.3z"/>
	<path class="st0" d="M97.7,12.1h6.3v2.7h-9.9V0.3h3.6V12.1z"/>
	<path class="st0" d="M116.3,12h-4.9l-0.9,2.7h-3.9l5.5-14.5h3.4l5.5,14.5h-3.9L116.3,12z M112.2,9.3h3.2l-1.6-5L112.2,9.3z"/>
</g>
</svg>
